<svg width="622" height="517" viewBox="0 0 622 517" fill="none" xmlns="http://www.w3.org/2000/svg">
<path d="M102.346 259.296C148.025 281.673 199.985 294.976 250.539 290.963" stroke="black" stroke-width="3.13359"/>
<path d="M250.538 290.962C262.462 289.757 274.311 287.874 286.084 285.313C288.669 284.749 291.204 284.059 293.69 283.241C293.931 283.165 294.104 283.241 294.21 283.469C296.658 288.742 294.045 291.324 289.49 294.008C286.279 295.905 283.052 297.781 279.807 299.639C232.643 326.644 199.962 370.13 181.985 420.853C181.853 421.221 181.968 421.333 182.328 421.191C201.087 413.712 219.877 406.101 238.697 398.355C253.974 392.067 268.588 384.555 281.442 374.579C312.132 350.767 326.912 313.286 324.908 274.874C322.68 232.133 294.491 195.468 258.729 173.637" stroke="black" stroke-width="3.13359"/>
<path d="M258.729 173.637C220.209 150.896 175.329 149.054 132.282 156.856" stroke="black" stroke-width="3.13359"/>
<path d="M132.282 156.857C94.1946 163.173 56.5636 177.949 23.2865 197.29C22.1284 197.963 20.8416 198.989 19.5819 199.694C19.4764 199.755 19.3863 199.839 19.3188 199.94C19.2512 200.04 19.2082 200.155 19.193 200.275C19.1778 200.395 19.191 200.517 19.2315 200.63C19.2719 200.743 19.3386 200.846 19.426 200.928C30.9591 211.814 43.1021 222.009 55.8549 231.512C70.2808 242.266 86.2031 251.384 102.346 259.296" stroke="black" stroke-width="3.13359"/>
<path d="M420.461 153.806C395.429 121.598 337.773 138.816 328.636 176.531C327.157 182.645 325.105 191.444 322.479 202.927C321.346 207.895 320.396 210.448 322.305 214.197C330.436 230.186 337.48 245.878 340.128 263.586C348.29 318.251 324.544 374.515 274.738 401.343C271.567 403.052 266.608 405.32 259.859 408.149C227.028 421.929 194.277 436.164 161.165 449.245C159.673 449.836 158.736 450.53 158.355 451.325C148.634 471.632 138.65 492.61 128.401 514.258C128.198 514.696 128.317 514.821 128.759 514.633C181.355 492.618 234.229 471.32 286.75 449.123C299.808 443.605 312.022 437.643 323.392 431.238C375.017 402.181 410.135 341.761 408.024 282.281C407.778 275.278 406.208 263.796 406.323 255.607C406.548 239.257 418.423 226.628 424.024 211.757C428.117 200.897 429.548 189.609 428.315 177.891C428.273 177.51 428.345 177.124 428.523 176.783C428.701 176.442 428.976 176.16 429.314 175.973L540.223 114.968C540.322 114.911 540.4 114.823 540.443 114.717C540.486 114.611 540.492 114.494 540.46 114.384C540.428 114.274 540.36 114.178 540.267 114.112C540.174 114.045 540.061 114.012 539.946 114.018C531.379 114.555 521.336 118.411 513.259 121.297C482.667 132.223 452.09 143.161 421.526 154.111C421.339 154.178 421.135 154.185 420.944 154.13C420.753 154.075 420.584 153.962 420.461 153.806Z" stroke="black" stroke-width="3.13359"/>
<path d="M394.398 180.688C396.468 180.724 398.468 179.906 399.959 178.414C401.449 176.922 402.307 174.878 402.344 172.732C402.382 170.586 401.595 168.514 400.158 166.971C398.721 165.428 396.751 164.541 394.681 164.505C392.611 164.469 390.611 165.287 389.121 166.779C387.631 168.27 386.772 170.314 386.735 172.46C386.697 174.606 387.484 176.678 388.921 178.221C390.358 179.764 392.329 180.651 394.398 180.688Z" stroke="black" stroke-width="3.13359"/>
<path d="M258.729 173.637C294.491 195.468 322.68 232.133 324.908 274.874C326.912 313.286 312.132 350.767 281.442 374.58C268.588 384.556 253.974 392.067 238.697 398.356C219.877 406.101 201.087 413.713 182.328 421.191C181.968 421.333 181.853 421.221 181.985 420.854C199.962 370.13 232.643 326.645 279.807 299.639C283.052 297.782 286.279 295.905 289.49 294.008C294.045 291.325 296.658 288.742 294.21 283.47C294.104 283.242 293.931 283.165 293.69 283.241C291.204 284.059 288.669 284.749 286.084 285.313C274.311 287.874 262.462 289.757 250.538 290.963C250.632 290.245 250.949 289.831 251.488 289.721C251.809 289.653 251.82 289.551 251.522 289.415C250.987 289.163 250.444 289.179 249.895 289.465C249.656 289.587 249.402 289.659 249.133 289.681C248.519 289.74 247.973 289.947 247.494 290.304C247.142 290.567 246.775 290.594 246.393 290.385L243.724 288.917C243.689 288.894 243.663 288.86 243.65 288.82C243.638 288.781 243.639 288.738 243.655 288.699C243.67 288.66 243.698 288.628 243.735 288.608C243.771 288.588 243.813 288.581 243.854 288.588C245.204 288.912 246.511 288.757 247.774 288.124C247.959 288.03 247.956 287.943 247.763 287.863L247.499 287.759C247.364 287.703 247.348 287.621 247.451 287.513C248.685 286.207 249.017 284.685 248.448 282.947C248.369 282.698 248.377 282.43 248.471 282.185C249.592 279.189 251.198 276.055 250.312 273.842C250.208 273.59 250.19 273.331 250.259 273.067C250.783 271.114 250.867 269.119 250.511 267.08C250.441 266.696 250.287 266.423 250.049 266.261C249.818 266.102 249.554 265.963 249.257 265.843C248.99 265.74 248.923 265.564 249.056 265.314C249.144 265.154 249.107 265.051 248.947 265.005C248.798 264.96 248.683 264.875 248.602 264.749C248.004 263.784 248.078 262.998 248.825 262.389C249.054 262.2 249.194 261.959 249.245 261.666C249.698 259.111 250.255 256.587 250.917 254.094C251.553 251.705 251.155 249.256 251.783 246.738C252.168 245.179 253.332 244.371 254.009 242.852C254.125 242.592 254.15 242.322 254.082 242.042C253.407 239.143 253.756 236.436 255.129 233.921C256.614 231.183 256.849 228.464 258.044 225.667C259.221 222.914 258.973 220.013 260.267 217.477C262.236 213.613 263.788 209.577 264.925 205.37C265.049 204.911 265.086 204.444 265.038 203.967C265.008 203.696 265.056 203.44 265.182 203.199C267.277 199.084 266.631 195.346 267.908 190.984C267.978 190.724 267.98 190.464 267.913 190.202C267.656 189.221 267.877 188.294 268.575 187.422C268.688 187.281 268.817 187.157 268.962 187.05C269.401 186.727 269.455 186.191 269.123 185.442C269.087 185.369 269.039 185.304 268.982 185.252L265.522 182.231C265.418 182.139 265.332 182.028 265.272 181.904C265.212 181.779 265.177 181.644 265.171 181.507C265.143 180.851 264.86 180.51 264.324 180.483C263.985 180.463 263.689 180.34 263.436 180.114C262.114 178.94 261.102 177.511 260.402 175.827C260.312 175.622 260.169 175.569 259.973 175.667C259.894 175.706 259.822 175.738 259.757 175.765C259.641 175.813 259.535 175.801 259.44 175.728C258.458 174.992 258.221 174.296 258.729 173.637Z" fill="black"/>
<path d="M420.461 153.806C420.584 153.962 420.753 154.075 420.944 154.13C421.135 154.185 421.339 154.178 421.526 154.111C452.09 143.161 482.667 132.223 513.259 121.297C521.336 118.411 531.379 114.555 539.946 114.018C540.061 114.012 540.174 114.045 540.267 114.112C540.36 114.178 540.428 114.274 540.46 114.384C540.492 114.494 540.486 114.611 540.443 114.717C540.4 114.823 540.322 114.911 540.223 114.968L429.314 175.973C428.976 176.16 428.701 176.442 428.523 176.783C428.345 177.124 428.273 177.51 428.315 177.891C429.548 189.609 428.117 200.897 424.024 211.757C418.423 226.628 406.548 239.257 406.323 255.607C406.208 263.796 407.778 275.278 408.024 282.281C410.135 341.761 375.017 402.181 323.392 431.238C312.022 437.643 299.808 443.605 286.75 449.123C234.229 471.32 181.355 492.618 128.759 514.633C128.317 514.821 128.198 514.696 128.401 514.258C138.65 492.61 148.634 471.632 158.355 451.325C158.736 450.53 159.673 449.836 161.165 449.245C194.277 436.164 227.028 421.929 259.859 408.149C266.608 405.32 271.567 403.052 274.738 401.343C324.544 374.515 348.29 318.251 340.128 263.586C337.48 245.878 330.436 230.186 322.305 214.197C320.396 210.448 321.346 207.895 322.479 202.927C325.105 191.444 327.157 182.645 328.636 176.531C337.773 138.816 395.429 121.598 420.461 153.806ZM394.399 180.687C396.469 180.724 398.469 179.906 399.959 178.414C401.449 176.922 402.307 174.878 402.345 172.732C402.382 170.586 401.596 168.514 400.159 166.971C398.721 165.428 396.751 164.541 394.681 164.505C392.611 164.469 390.611 165.287 389.121 166.778C387.631 168.27 386.773 170.314 386.735 172.46C386.698 174.606 387.484 176.678 388.921 178.221C390.359 179.764 392.329 180.651 394.399 180.687Z" fill="black"/>
<path d="M247.344 291.86C105.822 293.494 20.048 200.387 20.048 200.387C20.048 200.387 169.867 104.969 272.678 183.522C375.489 262.075 247.344 291.86 247.344 291.86Z" fill="black"/>
</svg>
