<svg width="971" height="768" viewBox="0 0 971 768" fill="none" xmlns="http://www.w3.org/2000/svg">
<path d="M159.799 385.722C231.122 419.01 312.25 438.799 391.184 432.829" stroke="#AF9561" stroke-width="3.13359"/>
<path d="M391.183 432.829C409.801 431.036 428.301 428.234 446.683 424.425C450.719 423.586 454.678 422.559 458.559 421.342C458.935 421.23 459.205 421.343 459.371 421.683C463.193 429.526 459.114 433.368 452.002 437.36C446.989 440.181 441.949 442.973 436.882 445.735C363.242 485.908 312.215 550.597 284.147 626.052C283.941 626.598 284.119 626.766 284.682 626.553C313.972 615.429 343.309 604.106 372.694 592.584C396.548 583.23 419.366 572.056 439.435 557.216C487.354 521.793 510.43 466.037 507.302 408.896C503.824 345.316 459.81 290.774 403.972 258.299" stroke="#AE8A69" stroke-width="3.13359"/>
<path d="M403.972 258.299C343.827 224.47 273.753 221.729 206.54 233.336" stroke="#AF9561" stroke-width="3.13359"/>
<path d="M206.54 233.336C147.072 242.733 88.3158 264.712 36.358 293.485C34.5497 294.485 32.5406 296.012 30.5738 297.061C30.4091 297.151 30.2684 297.276 30.1629 297.426C30.0574 297.576 29.9902 297.747 29.9665 297.925C29.9429 298.104 29.9634 298.284 30.0266 298.453C30.0898 298.622 30.1938 298.773 30.3303 298.896C48.3378 315.09 67.2975 330.255 87.2094 344.392C109.734 360.39 134.594 373.954 159.798 385.722" stroke="#B1A058" stroke-width="3.13359"/>
<path d="M656.495 228.798C617.411 180.887 527.388 206.5 513.122 262.604C510.813 271.699 507.609 284.788 503.509 301.87C501.74 309.26 500.257 313.058 503.237 318.635C515.933 342.419 526.931 365.763 531.066 392.105C543.809 473.423 506.732 557.12 428.967 597.029C424.017 599.57 416.273 602.945 405.736 607.153C354.474 627.653 303.338 648.828 251.639 668.286C249.308 669.166 247.845 670.197 247.25 671.38C232.073 701.589 216.483 732.796 200.481 764.998C200.163 765.65 200.35 765.836 201.04 765.556C283.162 732.806 365.718 701.125 447.723 668.105C468.111 659.896 487.182 651.028 504.934 641.5C585.54 598.275 640.373 508.396 637.077 419.915C636.692 409.497 634.241 392.417 634.421 380.235C634.771 355.914 653.313 337.127 662.058 315.005C668.449 298.851 670.683 282.058 668.758 264.627C668.692 264.06 668.805 263.486 669.083 262.979C669.36 262.471 669.79 262.052 670.318 261.774L843.487 171.023C843.643 170.94 843.764 170.808 843.832 170.651C843.899 170.493 843.908 170.318 843.859 170.155C843.809 169.991 843.702 169.849 843.557 169.75C843.411 169.651 843.235 169.602 843.056 169.611C829.679 170.41 813.999 176.146 801.387 180.439C753.622 196.693 705.879 212.964 658.157 229.252C657.865 229.352 657.548 229.362 657.249 229.28C656.951 229.199 656.687 229.03 656.495 228.798Z" stroke="#AA6A6A" stroke-width="3.13359"/>
<path d="M615.802 268.787C619.034 268.841 622.157 267.624 624.483 265.405C626.81 263.185 628.15 260.145 628.208 256.953C628.267 253.761 627.039 250.678 624.795 248.383C622.551 246.087 619.475 244.768 616.243 244.714C613.011 244.66 609.888 245.877 607.561 248.096C605.235 250.315 603.895 253.356 603.836 256.548C603.778 259.74 605.006 262.823 607.25 265.118C609.494 267.413 612.57 268.733 615.802 268.787Z" stroke="#AA6A6A" stroke-width="3.13359"/>
<path d="M403.971 258.299C459.81 290.774 503.823 345.316 507.302 408.896C510.43 466.038 487.354 521.793 439.435 557.216C419.365 572.056 396.548 583.23 372.694 592.584C343.309 604.106 313.971 615.429 284.681 626.554C284.119 626.766 283.94 626.599 284.146 626.052C312.215 550.598 363.242 485.909 436.882 445.736C441.948 442.973 446.988 440.181 452.002 437.36C459.114 433.368 463.192 429.526 459.37 421.683C459.205 421.344 458.935 421.23 458.559 421.343C454.677 422.559 450.718 423.587 446.682 424.425C428.3 428.235 409.801 431.036 391.183 432.83C391.33 431.762 391.824 431.146 392.666 430.982C393.167 430.882 393.184 430.73 392.718 430.527C391.883 430.152 391.036 430.177 390.178 430.602C389.804 430.783 389.408 430.891 388.989 430.924C388.03 431.01 387.177 431.319 386.429 431.85C385.88 432.241 385.307 432.282 384.711 431.971L380.543 429.786C380.488 429.752 380.448 429.701 380.428 429.642C380.408 429.583 380.411 429.52 380.435 429.462C380.459 429.404 380.503 429.357 380.56 429.327C380.617 429.297 380.683 429.286 380.747 429.297C382.854 429.779 384.894 429.549 386.866 428.607C387.156 428.467 387.151 428.337 386.85 428.218L386.438 428.064C386.226 427.98 386.201 427.858 386.363 427.698C388.289 425.756 388.808 423.491 387.92 420.906C387.796 420.536 387.808 420.136 387.955 419.772C389.706 415.315 392.213 410.653 390.83 407.361C390.667 406.986 390.64 406.601 390.746 406.208C391.564 403.304 391.696 400.335 391.14 397.303C391.031 396.731 390.79 396.324 390.419 396.083C390.058 395.847 389.646 395.64 389.182 395.462C388.765 395.309 388.661 395.047 388.869 394.676C389.006 394.437 388.949 394.284 388.698 394.216C388.466 394.149 388.286 394.021 388.159 393.834C387.225 392.4 387.341 391.23 388.508 390.323C388.866 390.042 389.084 389.684 389.163 389.249C389.871 385.448 390.741 381.693 391.773 377.984C392.768 374.43 392.146 370.787 393.126 367.041C393.727 364.723 395.545 363.521 396.601 361.262C396.784 360.874 396.822 360.472 396.716 360.057C395.662 355.744 396.207 351.717 398.351 347.975C400.669 343.902 401.036 339.857 402.902 335.698C404.74 331.602 404.353 327.286 406.373 323.515C409.447 317.765 411.871 311.761 413.645 305.503C413.839 304.821 413.897 304.126 413.822 303.417C413.776 303.014 413.851 302.633 414.047 302.275C417.319 296.153 416.31 290.592 418.303 284.103C418.412 283.717 418.415 283.33 418.311 282.94C417.911 281.481 418.255 280.102 419.344 278.805C419.521 278.595 419.722 278.41 419.948 278.251C420.635 277.771 420.719 276.973 420.2 275.859C420.144 275.751 420.07 275.655 419.981 275.576L414.578 271.082C414.415 270.946 414.282 270.781 414.188 270.596C414.093 270.411 414.04 270.21 414.03 270.006C413.986 269.03 413.545 268.523 412.707 268.483C412.178 268.453 411.716 268.27 411.321 267.933C409.256 266.187 407.677 264.062 406.584 261.556C406.443 261.252 406.22 261.172 405.914 261.319C405.791 261.376 405.679 261.424 405.576 261.465C405.395 261.536 405.23 261.517 405.081 261.408C403.548 260.315 403.178 259.278 403.971 258.299Z" fill="url(#paint0_linear_1815_20250)"/>
<path d="M656.495 228.798C656.687 229.03 656.951 229.199 657.25 229.28C657.548 229.362 657.865 229.352 658.158 229.252C705.879 212.964 753.622 196.693 801.387 180.439C813.999 176.146 829.68 170.41 843.056 169.611C843.235 169.602 843.411 169.651 843.557 169.75C843.702 169.849 843.809 169.991 843.859 170.155C843.909 170.318 843.899 170.493 843.832 170.651C843.764 170.808 843.643 170.94 843.487 171.023L670.318 261.774C669.79 262.052 669.36 262.471 669.083 262.979C668.805 263.486 668.692 264.06 668.758 264.627C670.683 282.058 668.45 298.851 662.058 315.005C653.314 337.127 634.772 355.914 634.421 380.235C634.241 392.417 636.692 409.497 637.077 419.915C640.373 508.396 585.54 598.275 504.934 641.5C487.182 651.028 468.112 659.896 447.723 668.105C365.718 701.125 283.162 732.806 201.041 765.556C200.35 765.836 200.164 765.65 200.481 764.998C216.483 732.796 232.073 701.589 247.25 671.38C247.845 670.197 249.308 669.166 251.639 668.286C303.338 648.828 354.474 627.653 405.736 607.153C416.273 602.945 424.017 599.57 428.967 597.029C506.733 557.12 543.809 473.423 531.066 392.105C526.932 365.763 515.933 342.419 503.237 318.635C500.257 313.058 501.74 309.26 503.509 301.87C507.609 284.788 510.813 271.699 513.122 262.604C527.388 206.5 617.411 180.887 656.495 228.798ZM615.803 268.787C619.035 268.84 622.157 267.624 624.484 265.405C626.811 263.185 628.151 260.145 628.209 256.953C628.268 253.761 627.04 250.678 624.796 248.382C622.552 246.087 619.475 244.767 616.243 244.714C613.011 244.66 609.889 245.877 607.562 248.096C605.235 250.315 603.895 253.355 603.837 256.548C603.779 259.74 605.006 262.823 607.25 265.118C609.494 267.413 612.571 268.733 615.803 268.787Z" fill="#F40816"/>
<path d="M386.194 434.165C165.227 436.594 31.3015 298.091 31.3015 298.091C31.3015 298.091 265.224 156.15 425.751 273.003C586.277 389.857 386.194 434.165 386.194 434.165Z" fill="url(#paint1_linear_1815_20250)"/>
<defs>
<linearGradient id="paint0_linear_1815_20250" x1="404.395" y1="383.795" x2="638.226" y2="439.241" gradientUnits="userSpaceOnUse">
<stop stop-color="#FB6413"/>
<stop offset="1" stop-color="#F40816"/>
</linearGradient>
<linearGradient id="paint1_linear_1815_20250" x1="37.3935" y1="312.172" x2="626.226" y2="454.266" gradientUnits="userSpaceOnUse">
<stop stop-color="#FDEF0A"/>
<stop offset="1" stop-color="#F80818"/>
</linearGradient>
</defs>
</svg>
