<svg width="142" height="42" viewBox="0 0 142 42" fill="none" xmlns="http://www.w3.org/2000/svg">
<path d="M53.6139 36.9347H48.7083L43.0396 21.3457H47.0886L51.1689 32.5586L55.2335 21.3457H59.2826L53.6139 36.9347Z" fill="black"/>
<path d="M60.9623 21.3613H64.7622V36.9347H60.9623V21.3613ZM62.8934 19.3523C62.3328 19.3523 61.8604 19.1706 61.4762 18.8073C61.0921 18.4335 60.9 17.9663 60.9 17.4057C60.9 16.8554 61.0921 16.3934 61.4762 16.0196C61.8604 15.6459 62.3276 15.459 62.8779 15.459C63.4281 15.459 63.8901 15.6459 64.2639 16.0196C64.648 16.3934 64.8401 16.8554 64.8401 17.4057C64.8401 17.9663 64.6532 18.4335 64.2795 18.8073C63.9057 19.1706 63.4437 19.3523 62.8934 19.3523Z" fill="black"/>
<path d="M72.2336 37.215C71.4237 37.1631 70.6399 37.0022 69.882 36.7323C69.1345 36.4519 68.47 36.073 67.8886 35.5954C67.3072 35.1178 66.8607 34.5468 66.5493 33.8823L69.7574 32.5119C69.882 32.7195 70.0844 32.9427 70.3648 33.1815C70.6451 33.4099 70.9773 33.602 71.3615 33.7577C71.756 33.9135 72.1868 33.9913 72.654 33.9913C73.0486 33.9913 73.4223 33.9394 73.7753 33.8356C74.1387 33.7214 74.4294 33.5501 74.6474 33.3217C74.8759 33.0933 74.9901 32.7974 74.9901 32.434C74.9901 32.0499 74.8551 31.754 74.5851 31.5463C74.3256 31.3283 73.9934 31.1674 73.5885 31.0635C73.1939 30.9493 72.8098 30.8455 72.436 30.7521C71.4497 30.5548 70.5309 30.2485 69.6795 29.8332C68.8386 29.418 68.1585 28.8833 67.6394 28.2292C67.1307 27.5647 66.8763 26.7653 66.8763 25.8309C66.8763 24.803 67.1463 23.9153 67.6861 23.1678C68.2364 22.4203 68.9476 21.8441 69.8197 21.4392C70.7022 21.0343 71.6522 20.8318 72.6696 20.8318C73.9051 20.8318 75.0368 21.0914 76.0646 21.6105C77.1028 22.1192 77.923 22.8408 78.5252 23.7752L75.5196 25.5506C75.3742 25.3014 75.1717 25.073 74.9122 24.8653C74.6526 24.6473 74.3567 24.4708 74.0245 24.3358C73.6923 24.1905 73.3445 24.1074 72.9811 24.0867C72.5139 24.0659 72.0882 24.1074 71.7041 24.2112C71.3199 24.3151 71.0085 24.4916 70.7697 24.7407C70.5413 24.9899 70.4271 25.3221 70.4271 25.7374C70.4271 26.132 70.5828 26.4279 70.8943 26.6251C71.2057 26.812 71.5795 26.9574 72.0155 27.0612C72.462 27.165 72.8876 27.2792 73.2926 27.4038C74.2062 27.7049 75.0627 28.0734 75.8622 28.5095C76.672 28.9456 77.3209 29.4802 77.8088 30.1136C78.2968 30.7469 78.5304 31.5048 78.5096 32.3873C78.5096 33.3944 78.2086 34.2769 77.6064 35.0348C77.0042 35.7823 76.2255 36.3533 75.2704 36.7478C74.3256 37.1424 73.3133 37.2981 72.2336 37.215Z" fill="black"/>
<path d="M80.1869 21.3613H83.9869V36.9347H80.1869V21.3613ZM82.118 19.3523C81.5574 19.3523 81.085 19.1706 80.7009 18.8073C80.3167 18.4335 80.1246 17.9663 80.1246 17.4057C80.1246 16.8554 80.3167 16.3934 80.7009 16.0196C81.085 15.6459 81.5522 15.459 82.1025 15.459C82.6527 15.459 83.1147 15.6459 83.4885 16.0196C83.8726 16.3934 84.0647 16.8554 84.0647 17.4057C84.0647 17.9663 83.8778 18.4335 83.5041 18.8073C83.1303 19.1706 82.6683 19.3523 82.118 19.3523Z" fill="black"/>
<path d="M95.4547 25.1612H92.4335V36.9347H88.6336V25.1612H86.3287V21.3613H88.6336V16.4713H92.4335V21.3613H95.4547V25.1612Z" fill="black"/>
<path d="M104.135 37.3396C102.702 37.3396 101.394 36.9711 100.21 36.2339C99.037 35.4968 98.0974 34.5053 97.3914 33.2594C96.6958 32.0135 96.348 30.6379 96.348 29.1324C96.348 28.0008 96.5504 26.9418 96.9553 25.9555C97.3603 24.9588 97.9157 24.0867 98.6217 23.3391C99.3381 22.5812 100.169 21.9894 101.113 21.5638C102.058 21.1381 103.065 20.9253 104.135 20.9253C105.349 20.9253 106.46 21.1848 107.467 21.7039C108.485 22.2127 109.347 22.9135 110.053 23.8063C110.759 24.6992 111.272 25.7167 111.594 26.8587C111.916 28.0008 111.989 29.1947 111.812 30.4406H100.428C100.574 31.022 100.812 31.5463 101.145 32.0135C101.477 32.4703 101.897 32.8389 102.406 33.1192C102.915 33.3892 103.491 33.5293 104.135 33.5397C104.799 33.5501 105.401 33.3944 105.941 33.0725C106.491 32.7403 106.948 32.2938 107.312 31.7332L111.189 32.6365C110.556 34.0173 109.611 35.149 108.355 36.0315C107.099 36.9036 105.692 37.3396 104.135 37.3396ZM100.304 27.5907H107.966C107.852 26.9677 107.608 26.4071 107.234 25.9087C106.87 25.4 106.419 24.9951 105.879 24.694C105.339 24.3929 104.758 24.2424 104.135 24.2424C103.512 24.2424 102.936 24.3929 102.406 24.694C101.877 24.9847 101.425 25.3844 101.051 25.8932C100.688 26.3915 100.439 26.9574 100.304 27.5907Z" fill="black"/>
<path d="M115.108 37.3396C114.568 37.3396 114.106 37.1527 113.722 36.779C113.348 36.3948 113.161 35.9276 113.161 35.3774C113.161 34.8479 113.348 34.3911 113.722 34.0069C114.106 33.6228 114.568 33.4307 115.108 33.4307C115.648 33.4307 116.11 33.6228 116.494 34.0069C116.878 34.3911 117.07 34.8479 117.07 35.3774C117.07 35.9276 116.878 36.3948 116.494 36.779C116.11 37.1527 115.648 37.3396 115.108 37.3396Z" fill="black"/>
<path d="M119.781 37.187V13.8269H123.581V37.187H119.781Z" fill="url(#paint0_linear_1807_8478)"/>
<path d="M138.2 21.6136H142V37.187H138.2L138.029 35.2559C137.603 35.9515 137.037 36.5174 136.331 36.9534C135.636 37.3791 134.81 37.5919 133.855 37.5919C132.703 37.5919 131.623 37.3739 130.616 36.9378C129.609 36.5018 128.721 35.8996 127.953 35.1313C127.195 34.363 126.598 33.4754 126.162 32.4683C125.736 31.4612 125.523 30.3814 125.523 29.229C125.523 28.1181 125.726 27.0747 126.131 26.0988C126.546 25.1228 127.122 24.2663 127.859 23.5291C128.597 22.792 129.448 22.2158 130.413 21.8005C131.379 21.3852 132.417 21.1776 133.528 21.1776C134.556 21.1776 135.475 21.406 136.285 21.8628C137.105 22.3196 137.8 22.901 138.371 23.607L138.2 21.6136ZM133.762 33.9322C134.572 33.9322 135.288 33.7297 135.911 33.3248C136.534 32.9199 137.022 32.3748 137.375 31.6896C137.728 30.994 137.904 30.2309 137.904 29.4003C137.904 28.5594 137.728 27.7963 137.375 27.111C137.022 26.4154 136.529 25.8652 135.895 25.4602C135.272 25.0553 134.561 24.8529 133.762 24.8529C132.962 24.8529 132.23 25.0605 131.566 25.4758C130.912 25.8807 130.388 26.4258 129.993 27.111C129.609 27.7963 129.417 28.5594 129.417 29.4003C129.417 30.2413 129.614 31.0044 130.009 31.6896C130.403 32.3748 130.927 32.9199 131.581 33.3248C132.246 33.7297 132.973 33.9322 133.762 33.9322Z" fill="url(#paint1_linear_1807_8478)"/>
<path d="M8.12939 21.1509C11.7577 22.9283 15.8849 23.985 19.9005 23.6662" stroke="#AF9561" stroke-width="0.260374"/>
<path d="M19.9006 23.6662C20.8477 23.5704 21.7889 23.4209 22.724 23.2174C22.9293 23.1727 23.1307 23.1178 23.3282 23.0529C23.3473 23.0469 23.361 23.0529 23.3694 23.071C23.5639 23.4898 23.3564 23.695 22.9946 23.9081C22.7395 24.0588 22.4831 24.2078 22.2254 24.3554C18.4792 26.5004 15.8833 29.9545 14.4554 33.9835C14.4449 34.0127 14.454 34.0216 14.4826 34.0103C15.9727 33.4163 17.4651 32.8117 18.96 32.1965C20.1735 31.697 21.3343 31.1003 22.3553 30.3079C24.793 28.4165 25.967 25.4394 25.8078 22.3883C25.6309 18.9934 23.3918 16.0811 20.5512 14.347" stroke="#AE8A69" stroke-width="0.260374"/>
<path d="M20.5511 14.3471C17.4914 12.5407 13.9266 12.3944 10.5073 13.0142" stroke="#AF9561" stroke-width="0.260374"/>
<path d="M10.5072 13.0141C7.48191 13.5158 4.49287 14.6894 1.84966 16.2258C1.75767 16.2792 1.65546 16.3607 1.5554 16.4167C1.54703 16.4215 1.53987 16.4282 1.5345 16.4362C1.52914 16.4442 1.52572 16.4533 1.52451 16.4629C1.52331 16.4724 1.52435 16.482 1.52757 16.491C1.53078 16.5 1.53607 16.5082 1.54302 16.5147C2.4591 17.3794 3.42362 18.1892 4.43658 18.944C5.58244 19.7982 6.84715 20.5225 8.12935 21.1509" stroke="#B1A058" stroke-width="0.260374"/>
<path d="M33.3973 12.7717C31.409 10.2134 26.8293 11.581 26.1036 14.5767C25.9861 15.0624 25.8231 15.7613 25.6145 16.6734C25.5246 17.068 25.4491 17.2708 25.6007 17.5686C26.2466 18.8385 26.8061 20.085 27.0164 21.4916C27.6647 25.8336 25.7785 30.3027 21.8224 32.4337C21.5706 32.5694 21.1767 32.7496 20.6406 32.9742C18.0328 34.0688 15.4314 35.1995 12.8013 36.2385C12.6828 36.2855 12.6084 36.3406 12.5781 36.4037C11.806 38.0168 11.0129 39.6831 10.1988 41.4025C10.1827 41.4374 10.1922 41.4473 10.2273 41.4323C14.405 39.6836 18.6048 37.992 22.7766 36.2288C23.8138 35.7905 24.784 35.317 25.6871 34.8082C29.7876 32.5002 32.5771 27.701 32.4094 22.9765C32.3899 22.4202 32.2652 21.5082 32.2743 20.8577C32.2922 19.5591 33.2354 18.556 33.6803 17.3748C34.0054 16.5122 34.1191 15.6155 34.0211 14.6847C34.0178 14.6545 34.0235 14.6239 34.0377 14.5967C34.0518 14.5696 34.0736 14.5472 34.1005 14.5324L42.91 9.68671C42.9179 9.68224 42.9241 9.67523 42.9275 9.66681C42.931 9.65839 42.9314 9.64906 42.9289 9.64033C42.9264 9.6316 42.9209 9.62398 42.9135 9.61871C42.9061 9.61345 42.8972 9.61084 42.8881 9.61131C42.2076 9.65394 41.4098 9.96023 40.7683 10.1895C38.3384 11.0573 35.9096 11.9261 33.4819 12.7959C33.467 12.8012 33.4508 12.8017 33.4357 12.7974C33.4205 12.793 33.4071 12.784 33.3973 12.7717Z" stroke="#AA6A6A" stroke-width="0.260374"/>
<path d="M31.3271 14.9069C31.4915 14.9098 31.6503 14.8449 31.7687 14.7264C31.8871 14.6078 31.9552 14.4455 31.9582 14.2751C31.9612 14.1046 31.8987 13.94 31.7846 13.8174C31.6704 13.6949 31.5139 13.6244 31.3495 13.6215C31.1851 13.6187 31.0262 13.6836 30.9079 13.8021C30.7895 13.9206 30.7213 14.083 30.7184 14.2534C30.7154 14.4239 30.7778 14.5885 30.892 14.7111C31.0062 14.8336 31.1627 14.9041 31.3271 14.9069Z" stroke="#AA6A6A" stroke-width="0.260374"/>
<path d="M20.5512 14.347C23.3918 16.0811 25.6309 18.9934 25.8078 22.3883C25.967 25.4394 24.793 28.4165 22.3553 30.3079C21.3343 31.1003 20.1735 31.697 18.96 32.1965C17.4651 32.8117 15.9727 33.4163 14.4826 34.0103C14.454 34.0216 14.4449 34.0127 14.4554 33.9835C15.8833 29.9545 18.4792 26.5004 22.2254 24.3554C22.4831 24.2078 22.7395 24.0588 22.9946 23.9081C23.3564 23.695 23.5639 23.4898 23.3694 23.071C23.361 23.0529 23.3473 23.0469 23.3282 23.0529C23.1307 23.1178 22.9293 23.1727 22.724 23.2174C21.7889 23.4209 20.8477 23.5704 19.9006 23.6662C19.9081 23.6092 19.9332 23.5763 19.9761 23.5676C20.0015 23.5622 20.0024 23.5541 19.9787 23.5432C19.9362 23.5232 19.8931 23.5246 19.8495 23.5473C19.8305 23.557 19.8103 23.5627 19.789 23.5644C19.7402 23.5691 19.6968 23.5855 19.6588 23.6139C19.6308 23.6348 19.6017 23.637 19.5714 23.6204L19.3593 23.5037C19.3566 23.5019 19.3545 23.4992 19.3535 23.496C19.3525 23.4929 19.3526 23.4895 19.3538 23.4864C19.355 23.4833 19.3573 23.4808 19.3602 23.4792C19.3631 23.4776 19.3664 23.477 19.3697 23.4776C19.4769 23.5033 19.5807 23.491 19.681 23.4408C19.6958 23.4333 19.6955 23.4264 19.6802 23.42L19.6592 23.4118C19.6485 23.4073 19.6472 23.4008 19.6554 23.3922C19.7534 23.2885 19.7798 23.1676 19.7346 23.0295C19.7283 23.0098 19.7289 22.9884 19.7364 22.969C19.8255 22.731 19.953 22.4821 19.8827 22.3063C19.8744 22.2863 19.873 22.2657 19.8784 22.2447C19.92 22.0897 19.9267 21.9312 19.8984 21.7692C19.8929 21.7387 19.8806 21.717 19.8617 21.7041C19.8434 21.6915 19.8224 21.6805 19.7988 21.671C19.7776 21.6628 19.7723 21.6488 19.7829 21.6289C19.7899 21.6162 19.787 21.608 19.7742 21.6044C19.7624 21.6008 19.7533 21.594 19.7468 21.584C19.6993 21.5074 19.7052 21.4449 19.7645 21.3966C19.7827 21.3816 19.7939 21.3624 19.7979 21.3392C19.8339 21.1362 19.8781 20.9357 19.9307 20.7377C19.9812 20.5479 19.9496 20.3534 19.9995 20.1534C20.0301 20.0296 20.1225 19.9654 20.1763 19.8448C20.1855 19.8241 20.1875 19.8026 20.1821 19.7804C20.1285 19.5502 20.1562 19.3351 20.2652 19.1354C20.3832 18.9179 20.4018 18.7019 20.4968 18.4798C20.5903 18.2611 20.5706 18.0306 20.6734 17.8292C20.8297 17.5223 20.953 17.2017 21.0433 16.8675C21.0532 16.8311 21.0562 16.794 21.0523 16.7561C21.05 16.7346 21.0538 16.7142 21.0637 16.6951C21.2302 16.3682 21.1789 16.0713 21.2803 15.7248C21.2858 15.7042 21.286 15.6835 21.2807 15.6627C21.2603 15.5848 21.2778 15.5112 21.3332 15.4419C21.3422 15.4307 21.3525 15.4209 21.364 15.4124C21.3989 15.3867 21.4032 15.3441 21.3768 15.2846C21.3739 15.2788 21.3701 15.2737 21.3656 15.2695L21.0908 15.0296C21.0825 15.0223 21.0757 15.0135 21.0709 15.0036C21.0661 14.9937 21.0634 14.983 21.0629 14.9721C21.0606 14.92 21.0382 14.8929 20.9956 14.8908C20.9687 14.8892 20.9452 14.8794 20.9251 14.8614C20.82 14.7682 20.7397 14.6547 20.6841 14.5209C20.6769 14.5046 20.6656 14.5004 20.65 14.5082C20.6438 14.5113 20.638 14.5139 20.6328 14.516C20.6236 14.5198 20.6152 14.5188 20.6077 14.513C20.5296 14.4546 20.5108 14.3993 20.5512 14.347Z" fill="url(#paint2_linear_1807_8478)"/>
<path d="M33.3973 12.7717C33.4071 12.784 33.4205 12.793 33.4357 12.7974C33.4508 12.8017 33.467 12.8012 33.4819 12.7959C35.9096 11.9261 38.3384 11.0573 40.7683 10.1895C41.4099 9.96023 42.2076 9.65394 42.8881 9.61131C42.8971 9.61084 42.9061 9.61345 42.9135 9.61871C42.9209 9.62398 42.9264 9.6316 42.9289 9.64033C42.9314 9.64906 42.931 9.65839 42.9275 9.66681C42.9241 9.67523 42.9179 9.68224 42.91 9.68671L34.1005 14.5324C34.0736 14.5472 34.0518 14.5696 34.0377 14.5967C34.0235 14.6239 34.0178 14.6545 34.0211 14.6847C34.1191 15.6155 34.0054 16.5122 33.6803 17.3748C33.2354 18.556 32.2922 19.5591 32.2743 20.8577C32.2652 21.5082 32.3899 22.4202 32.4094 22.9765C32.5771 27.701 29.7876 32.5002 25.6871 34.8082C24.784 35.317 23.8138 35.7905 22.7766 36.2288C18.6048 37.992 14.405 39.6836 10.2273 41.4323C10.1922 41.4473 10.1827 41.4374 10.1988 41.4025C11.0129 39.683 11.806 38.0168 12.5781 36.4037C12.6084 36.3406 12.6828 36.2855 12.8013 36.2385C15.4314 35.1995 18.0328 34.0688 20.6406 32.9742C21.1767 32.7496 21.5706 32.5694 21.8224 32.4337C25.7785 30.3027 27.6647 25.8336 27.0164 21.4916C26.8061 20.085 26.2466 18.8385 25.6007 17.5686C25.4491 17.2708 25.5246 17.068 25.6145 16.6734C25.8231 15.7613 25.9861 15.0624 26.1036 14.5767C26.8293 11.581 31.409 10.2134 33.3973 12.7717ZM31.3272 14.9069C31.4916 14.9097 31.6504 14.8448 31.7688 14.7263C31.8872 14.6078 31.9553 14.4454 31.9583 14.275C31.9613 14.1045 31.8988 13.9399 31.7847 13.8174C31.6705 13.6948 31.514 13.6243 31.3496 13.6215C31.1852 13.6186 31.0263 13.6836 30.908 13.8021C30.7896 13.9206 30.7214 14.0829 30.7185 14.2534C30.7155 14.4238 30.7779 14.5884 30.8921 14.711C31.0063 14.8335 31.1628 14.904 31.3272 14.9069Z" fill="#F40816"/>
<path d="M19.6469 23.7374C8.40576 23.8671 1.59268 16.4716 1.59268 16.4716C1.59268 16.4716 13.4928 8.8925 21.6592 15.132C29.8255 21.3715 19.6469 23.7374 19.6469 23.7374Z" fill="url(#paint3_linear_1807_8478)"/>
<defs>
<linearGradient id="paint0_linear_1807_8478" x1="119.696" y1="13.904" x2="134.434" y2="9.84975" gradientUnits="userSpaceOnUse">
<stop stop-color="#F9BD0F"/>
<stop offset="0.471875" stop-color="#F94314"/>
<stop offset="1" stop-color="#F40816"/>
</linearGradient>
<linearGradient id="paint1_linear_1807_8478" x1="119.696" y1="13.904" x2="134.434" y2="9.84975" gradientUnits="userSpaceOnUse">
<stop stop-color="#F9BD0F"/>
<stop offset="0.471875" stop-color="#F94314"/>
<stop offset="1" stop-color="#F40816"/>
</linearGradient>
<linearGradient id="paint2_linear_1807_8478" x1="20.5727" y1="21.048" x2="32.527" y2="23.7486" gradientUnits="userSpaceOnUse">
<stop stop-color="#FB6413"/>
<stop offset="1" stop-color="#F40816"/>
</linearGradient>
<linearGradient id="paint3_linear_1807_8478" x1="1.90259" y1="17.2235" x2="32.0107" y2="24.1456" gradientUnits="userSpaceOnUse">
<stop stop-color="#FDEF0A"/>
<stop offset="1" stop-color="#F80818"/>
</linearGradient>
</defs>
</svg>
